<svg xmlns="http://www.w3.org/2000/svg" width="1200" height="630" viewBox="0 0 1200 630" role="img" aria-label="Terminal-style article preview">
  <defs>
    <linearGradient id="bg" x1="0" y1="0" x2="1" y2="1">
      <stop offset="0%" stop-color="#090b0e" />
      <stop offset="55%" stop-color="#0b0f13" />
      <stop offset="100%" stop-color="#0f141a" />
    </linearGradient>
    <radialGradient id="glowA" cx="0.12" cy="0.12" r="0.6">
      <stop offset="0%" stop-color="#52ffa8" stop-opacity="0.2" />
      <stop offset="100%" stop-color="#52ffa8" stop-opacity="0" />
    </radialGradient>
    <radialGradient id="glowB" cx="0.92" cy="0.22" r="0.45">
      <stop offset="0%" stop-color="#73d9ff" stop-opacity="0.16" />
      <stop offset="100%" stop-color="#73d9ff" stop-opacity="0" />
    </radialGradient>
  </defs>

  <rect width="1200" height="630" fill="url(#bg)" />
  <rect width="1200" height="630" fill="url(#glowA)" />
  <rect width="1200" height="630" fill="url(#glowB)" />

  <g opacity="0.05">
    <path d="M0 84h1200M0 168h1200M0 252h1200M0 336h1200M0 420h1200M0 504h1200M0 588h1200" stroke="#fff" />
  </g>

  <rect x="62" y="54" width="1076" height="522" rx="18" fill="#0b0f13" stroke="rgba(82,255,168,0.12)" />
  <rect x="62" y="54" width="1076" height="50" rx="18" fill="#0d1218" />
  <rect x="62" y="92" width="1076" height="1" fill="rgba(82,255,168,0.08)" />

  <circle cx="94" cy="79" r="7" fill="#ff5f56" />
  <circle cx="116" cy="79" r="7" fill="#ffbd2e" />
  <circle cx="138" cy="79" r="7" fill="#27c93f" />

  <text x="174" y="85" fill="#8fb09d" font-family="JetBrains Mono, monospace" font-size="18">gsisinna / article preview</text>

  <g>
    <text x="102" y="152" fill="#ffd166" font-family="JetBrains Mono, monospace" font-size="18">$</text>
    <text x="124" y="152" fill="#52ffa8" font-family="JetBrains Mono, monospace" font-size="18">less article.md</text>

    <rect x="100" y="180" width="732" height="300" rx="14" fill="#0e1318" stroke="rgba(82,255,168,0.08)" />

    <text x="130" y="230" fill="#ecfff2" font-family="JetBrains Mono, monospace" font-size="42" font-weight="700">
      Long-form engineering notes,
    </text>
    <text x="130" y="277" fill="#ecfff2" font-family="JetBrains Mono, monospace" font-size="42" font-weight="700">
      project logs, and lessons learned.
    </text>

    <text x="130" y="334" fill="#d7ffe4" font-family="IBM Plex Mono, monospace" font-size="21">
      Terminal-style writing on robotics software, architecture, experiments,
    </text>
    <text x="130" y="365" fill="#d7ffe4" font-family="IBM Plex Mono, monospace" font-size="21">
      prototyping workflows, and practical system integration.
    </text>

    <rect x="130" y="403" width="516" height="38" rx="8" fill="#10161c" stroke="rgba(82,255,168,0.14)" />
    <text x="148" y="428" fill="#52ffa8" font-family="JetBrains Mono, monospace" font-size="15">reading_time: 5-10 min</text>
    <text x="342" y="428" fill="#8fb09d" font-family="JetBrains Mono, monospace" font-size="15">|</text>
    <text x="358" y="428" fill="#73d9ff" font-family="JetBrains Mono, monospace" font-size="15">notes / journal / blog</text>
  </g>

  <g>
    <rect x="862" y="180" width="238" height="108" rx="12" fill="#0f1419" stroke="rgba(115,217,255,0.12)" />
    <text x="884" y="214" fill="#8fb09d" font-family="JetBrains Mono, monospace" font-size="14">meta.json</text>
    <text x="884" y="244" fill="#52ffa8" font-family="JetBrains Mono, monospace" font-size="13">"type": "article"</text>
    <text x="884" y="268" fill="#73d9ff" font-family="JetBrains Mono, monospace" font-size="13">"theme": "terminal"</text>

    <rect x="862" y="306" width="238" height="174" rx="12" fill="#0f1419" stroke="rgba(82,255,168,0.1)" />
    <text x="884" y="340" fill="#8fb09d" font-family="JetBrains Mono, monospace" font-size="14">outline.txt</text>
    <text x="884" y="372" fill="#ecfff2" font-family="JetBrains Mono, monospace" font-size="13">- context</text>
    <text x="884" y="396" fill="#ecfff2" font-family="JetBrains Mono, monospace" font-size="13">- challenge</text>
    <text x="884" y="420" fill="#ecfff2" font-family="JetBrains Mono, monospace" font-size="13">- implementation</text>
    <text x="884" y="444" fill="#ecfff2" font-family="JetBrains Mono, monospace" font-size="13">- lessons learned</text>
  </g>

  <rect x="62.5" y="54.5" width="1075" height="521" rx="17.5" fill="none" stroke="rgba(255,255,255,0.03)" />
</svg>
